<svg xmlns="http://www.w3.org/2000/svg" width="138" height="54" viewBox="0 0 138 54"><g fill="none" fill-rule="evenodd"><path fill="#000" fill-rule="nonzero" d="M25.28.784v17.39l.02.016v6.396l-4.793-4.208V5.558H6.187v15.286l8.622 13.197 11.262 6.938 5.49 7.538h11.753v-8.122L32.609 31h7.624l8.383 7.192V53.82H29.068l-6.501-9.03-11.445-7.248L.884 22.317V.784H25.28z"/><path fill="#000" fill-rule="nonzero" d="M52.602 9.92h-3.664V3.484a2.7 2.7 0 00-2.7-2.7H36.064a2.7 2.7 0 00-2.7 2.7V9.92H29.7v16.54h22.902V9.92zm-8.494-.233h-5.834V5.533h5.834v4.154z"/><path fill="#FFF" d="M47.589 15.26l-6.678 6.811a1.362 1.362 0 01-.844.357h-.577c-.272 0-.652-.161-.844-.357L35.5 18.856a.513.513 0 010-.713l1.238-1.259a.49.49 0 01.7 0l2.01 2.04a.49.49 0 00.7 0l5.506-5.617a.492.492 0 01.701-.002l1.231 1.244a.51.51 0 01.002.711z"/><path fill="#000" fill-rule="nonzero" d="M72.815 45v-4.297h2.418c.606 0 1.042.134 1.31.4.266.268.44.689.523 1.264.061.441.108.903.138 1.386.031.482.113.898.247 1.247h2.418a1.618 1.618 0 01-.255-.562 4.856 4.856 0 01-.123-.7 12.032 12.032 0 01-.054-.725 40.99 40.99 0 00-.03-.616 6.608 6.608 0 00-.116-.831 2.796 2.796 0 00-.27-.763 2.092 2.092 0 00-.477-.6 1.865 1.865 0 00-.74-.377v-.031c.617-.247 1.06-.606 1.333-1.078.272-.472.408-1.032.408-1.679 0-.42-.074-.813-.223-1.178a2.841 2.841 0 00-.647-.962 3.066 3.066 0 00-1.016-.655 3.54 3.54 0 00-1.333-.239h-5.928V45h2.417zm2.65-6.021h-2.65v-3.096h2.65c.553 0 .97.12 1.246.362.278.241.416.629.416 1.163 0 .554-.138.955-.415 1.201-.278.246-.694.37-1.248.37zM90.262 45v-2.033h-5.929v-2.695h5.328v-1.879h-5.328v-2.356h5.806v-2.033h-8.224V45h8.347zm3.31 0l.863-2.449h4.112L99.379 45h2.51l-4.111-10.996h-2.48L91.142 45h2.433zm4.344-4.25h-2.85l1.433-4.035h.03l1.386 4.035zm10.07 4.25c.843 0 1.574-.141 2.195-.423a4.366 4.366 0 001.556-1.163 4.88 4.88 0 00.931-1.756 7.617 7.617 0 00.308-2.217c0-.914-.125-1.71-.377-2.387-.252-.678-.6-1.243-1.047-1.694a4.295 4.295 0 00-1.586-1.017 5.662 5.662 0 00-1.98-.339h-4.742V45h4.743zm-.169-2.033h-2.156v-6.93h1.725c.596 0 1.096.085 1.502.254.405.17.731.414.978.732.246.318.423.7.53 1.147.109.447.162.947.162 1.502 0 .605-.076 1.119-.23 1.54-.154.42-.36.762-.616 1.024-.257.262-.55.449-.878.562-.329.113-.668.17-1.017.17zM120.323 45v-4.22l4.08-6.776h-2.694l-2.557 4.343-2.572-4.343h-2.71l4.035 6.715V45h2.418zM78.6 26.8c1.512 0 2.848-.265 4.007-.795 1.16-.529 2.134-1.247 2.923-2.154l-2.999-2.823a4.349 4.349 0 01-1.537 1.31c-.638.337-1.386.505-2.243.505-.739 0-1.42-.135-2.04-.403a4.71 4.71 0 01-1.601-1.122 5.164 5.164 0 01-1.046-1.726 6.27 6.27 0 01-.378-2.218c0-.79.126-1.516.378-2.18a5.223 5.223 0 011.059-1.726c.453-.487.995-.869 1.625-1.146a5.106 5.106 0 012.079-.416c.689 0 1.36.134 2.016.403.655.269 1.184.68 1.588 1.235l2.923-2.923c-.756-.857-1.743-1.508-2.961-1.953A10.752 10.752 0 0078.677 8c-1.361 0-2.63.218-3.805.655a9.096 9.096 0 00-3.075 1.878 8.633 8.633 0 00-2.054 2.96c-.495 1.16-.743 2.453-.743 3.881 0 1.395.244 2.672.73 3.83a8.928 8.928 0 002.017 2.987 8.969 8.969 0 003.036 1.928c1.168.453 2.44.68 3.818.68zm17.54 0c1.511 0 2.847-.265 4.006-.795 1.16-.529 2.134-1.247 2.923-2.154l-2.998-2.823a4.349 4.349 0 01-1.538 1.31c-.638.337-1.386.505-2.242.505-.74 0-1.42-.135-2.042-.403a4.71 4.71 0 01-1.6-1.122 5.164 5.164 0 01-1.046-1.726 6.27 6.27 0 01-.378-2.218c0-.79.126-1.516.378-2.18a5.223 5.223 0 011.059-1.726c.453-.487.995-.869 1.625-1.146a5.106 5.106 0 012.08-.416c.688 0 1.36.134 2.015.403s1.185.68 1.588 1.235l2.923-2.923c-.756-.857-1.743-1.508-2.961-1.953A10.752 10.752 0 0096.216 8c-1.36 0-2.63.218-3.805.655a9.096 9.096 0 00-3.075 1.878 8.633 8.633 0 00-2.053 2.96c-.496 1.16-.744 2.453-.744 3.881 0 1.395.244 2.672.731 3.83a8.928 8.928 0 002.016 2.987 8.969 8.969 0 003.037 1.928c1.167.453 2.44.68 3.817.68zm13.078-.48v-6.728h2.142c.924 0 1.815-.1 2.671-.302.857-.202 1.613-.521 2.268-.958a4.762 4.762 0 001.563-1.726c.386-.714.58-1.592.58-2.634 0-1.024-.181-1.885-.542-2.583a4.518 4.518 0 00-1.487-1.688c-.63-.428-1.37-.74-2.218-.932-.848-.194-1.76-.29-2.734-.29h-6.552V26.32h4.31zm1.815-10.155h-1.815v-4.209h1.89c.387 0 .76.026 1.122.076.36.05.684.151.97.302.285.152.512.362.68.63.168.27.252.614.252 1.034 0 .42-.084.768-.252 1.045a1.89 1.89 0 01-.693.668 3.112 3.112 0 01-.995.353c-.37.067-.756.1-1.16.1zm12.499 10.155l1.31-3.502h6.905l1.386 3.502h4.788L130.513 8.48h-4.183l-7.484 17.841h4.687zm7.03-6.955h-4.485l2.268-6.123 2.218 6.123z"/></g></svg>