<svg xmlns="http://www.w3.org/2000/svg" width="140" height="55" viewBox="0 0 140 55"><path stroke="#000" stroke-width=".3" d="M27.054 0l.877 2.837h2.836L28.473 4.59l.876 2.837-2.295-1.755-2.294 1.755.876-2.837-2.295-1.753h2.837L27.054 0zm0 46.682l.877 2.837h2.836l-2.294 1.753.876 2.836-2.295-1.753-2.294 1.753.876-2.836-2.295-1.753h2.837l.876-2.837zM38.724 3.8l.877 2.836h2.837L40.142 8.39l.877 2.836-2.295-1.753-2.295 1.753.877-2.836-2.296-1.754h2.837l.877-2.836zm9.549 8.49l.876 2.836h2.837l-2.295 1.753.877 2.837-2.295-1.753-2.295 1.753.877-2.837-2.295-1.753h2.836l.877-2.836zm0 22.721l.876 2.838h2.837l-2.295 1.753.877 2.836-2.295-1.753-2.295 1.753.877-2.836-2.295-1.753h2.837l.876-2.838zM5.835 12.29l.877 2.836h2.836l-2.294 1.753.876 2.837-2.295-1.753-2.295 1.753.877-2.837-2.295-1.753h2.837l.876-2.836zm44.56 11.05l.876 2.837h2.837l-2.295 1.753.877 2.837-2.295-1.752-2.295 1.752.877-2.837-2.295-1.753h2.836l.877-2.837zm-46.681 0l.876 2.837h2.837L5.13 27.93l.878 2.837-2.295-1.752-2.296 1.752.877-2.837L0 26.177h2.837l.877-2.837zm2.122 11.671l.876 2.838h2.836l-2.294 1.753.876 2.836-2.294-1.753-2.295 1.753.876-2.836-2.295-1.753h2.837l.877-2.838zm35.011 9.549l.876 2.836h2.837l-2.296 1.754.877 2.836-2.294-1.753-2.296 1.753.877-2.836-2.295-1.754h2.837l.877-2.836zM15.384 3.8l.876 2.836h2.837L16.802 8.39l.877 2.836-2.295-1.753-2.295 1.753.877-2.836-2.296-1.754h2.837l.877-2.836zm-2.122 40.76l.876 2.837h2.837L14.68 49.15l.877 2.836-2.295-1.752-2.295 1.752.877-2.836-2.296-1.753h2.837l.877-2.837z"/><path d="M34.604 23.885l-8.342 8.52c-.24.246-.714.446-1.054.446h-.721c-.34 0-.815-.201-1.055-.446l-3.928-4.021a.642.642 0 01.001-.892l1.546-1.576a.612.612 0 01.875 0l2.51 2.552c.24.245.634.245.875 0l6.878-7.027a.614.614 0 01.876-.002l1.537 1.556a.64.64 0 01.002.89zM70 18.943c0 5.495 4.21 8.942 9.38 8.942 3.274 0 5.794-1.322 7.665-3.37V17.75h-8.367v3.707h3.976v1.452c-.702.57-1.923 1.036-3.274 1.036-2.832 0-4.833-2.177-4.833-5.002 0-2.826 2-5.003 4.833-5.003 1.637 0 2.962.907 3.664 2.048l3.741-1.97C85.512 11.866 83.173 10 79.38 10 74.21 10 70 13.448 70 18.943zm19.67 8.631V10.285h7.275c5.456 0 9.38 3.266 9.38 8.632 0 5.365-3.924 8.657-9.354 8.657h-7.302.001zm4.468-3.888h2.807c3.04 0 4.806-2.203 4.806-4.77 0-2.669-1.61-4.743-4.78-4.743h-2.833v9.513zm14.421 3.888V10.285h8.678c3.898 0 6.029 2.618 6.029 5.755 0 3.11-2.131 5.676-6.029 5.676h-4.209v5.858h-4.469zm10.16-11.56c0-1.193-.884-1.97-2.08-1.97h-3.61v3.888h3.61c1.196 0 2.08-.752 2.08-1.918zm16.213 11.56l-2.91-5.858h-2.287v5.858h-4.469V10.285h8.679c3.845 0 6.028 2.54 6.028 5.755 0 3.006-1.845 4.614-3.456 5.184l3.534 6.35h-5.119zm.494-11.586c0-1.193-.988-1.944-2.157-1.944h-3.534v3.888h3.534c1.17 0 2.157-.752 2.157-1.944zM72.418 47.996v-4.297h2.418c.605 0 1.042.133 1.309.4.267.267.441.688.523 1.263.062.442.108.904.139 1.386.03.483.113.899.246 1.248h2.418a1.618 1.618 0 01-.254-.563 4.856 4.856 0 01-.123-.7 12.032 12.032 0 01-.054-.724 40.99 40.99 0 00-.031-.616 6.608 6.608 0 00-.115-.832 2.796 2.796 0 00-.27-.762 2.092 2.092 0 00-.477-.6 1.865 1.865 0 00-.74-.378v-.03c.616-.247 1.06-.606 1.333-1.079.272-.472.408-1.031.408-1.678 0-.421-.075-.814-.224-1.178a2.841 2.841 0 00-.647-.963 3.066 3.066 0 00-1.016-.654A3.54 3.54 0 0075.93 37H70v10.996h2.418zm2.649-6.022h-2.65V38.88h2.65c.554 0 .97.12 1.247.362.277.241.416.629.416 1.162 0 .555-.139.955-.416 1.202-.277.246-.693.37-1.247.37zm14.799 6.022v-2.033h-5.93v-2.695h5.329v-1.879h-5.328v-2.356h5.805V37H81.52v10.996h8.347zm3.31 0l.863-2.449h4.111l.832 2.449h2.51L97.38 37h-2.479l-4.158 10.996h2.433zm4.343-4.25H94.67l1.432-4.036h.031l1.386 4.035zm10.071 4.25c.842 0 1.574-.142 2.195-.424a4.366 4.366 0 001.555-1.163 4.88 4.88 0 00.932-1.755 7.617 7.617 0 00.308-2.218c0-.914-.126-1.71-.377-2.387-.252-.677-.601-1.242-1.048-1.694a4.295 4.295 0 00-1.586-1.016A5.662 5.662 0 00107.59 37h-4.743v10.996h4.743zm-.17-2.033h-2.155v-6.93h1.725c.595 0 1.096.084 1.501.254.406.17.732.413.978.731.246.319.424.701.531 1.148.108.446.162.947.162 1.501 0 .606-.077 1.12-.231 1.54-.154.421-.36.762-.616 1.024-.257.262-.55.45-.878.562-.328.113-.667.17-1.016.17zm12.505 2.033v-4.22L124.006 37h-2.695l-2.556 4.343L116.183 37h-2.71l4.034 6.714v4.282h2.418z"/></svg>